# AST/ASF file generated using VICON BodyLanguage
# -----------------------------------------------
:version 1.10
:name VICON
:units
  mass 1.0
  length 0.45
  angle deg
:documentation
   .ast/.asf automatically generated from VICON data using
   VICON BodyBuilder and BodyLanguage model FoxedUp or BRILLIANT.MOD
:root
   order TX TY TZ RX RY RZ
   axis XYZ
   position 0 0 0  
   orientation 0 0 0 
:bonedata
  begin
     id 1 
     name lhipjoint
     direction 0.716712 -0.619771 0.3197 
     length 2.67249 
     axis 0 0 0  XYZ
  end
  begin
     id 2 
     name lfemur
     direction 0.34202 -0.939693 0  
     length 7.04375  
     axis 0 0 20  XYZ
    dof rx ry rz
    limits (-160.0 20.0)
           (-70.0 70.0)
           (-60.0 70.0)
  end
  begin
     id 3 
     name ltibia
     direction 0.34202 -0.939693 0   
     length 8.12233   
     axis 0 0 20   XYZ
    dof rx
    limits (-10.0 170.0)
  end
  begin
     id 4 
     name lfoot
     direction 0.0986665 -0.271084 0.957485   
     length 1.97802   
     axis -90 7.62852e-016 20   XYZ
    dof rx rz
    limits (-45.0 90.0)
           (-70.0 20.0)
  end
  begin
     id 5 
     name ltoes
     direction 1.53569e-011 -4.21962e-011 1   
     length 0.991074   
     axis -90 7.62852e-016 20   XYZ
    dof rx
    limits (-90.0 20.0)
  end
  begin
     id 6 
     name rhipjoint
     direction -0.684484 -0.647907 0.334213   
     length 2.55643  
     axis 0 0 0  XYZ 
  end
  begin
     id 7 
     name rfemur
     direction -0.34202 -0.939693 0   
     length 7.00452   
     axis 0 0 -20   XYZ
    dof rx ry rz
    limits (-160.0 20.0)
           (-70.0 70.0)
           (-70.0 60.0)
  end
  begin
     id 8 
     name rtibia
     direction -0.34202 -0.939693 0   
     length 7.98545   
     axis 0 0 -20   XYZ
    dof rx
    limits (-10.0 170.0)
 end
 begin
     id 9 
     name rfoot
     direction -0.0877828 -0.241181 0.966502   
     length 2.17223  
     axis -90 -7.62852e-016 -20   XYZ
    dof rx rz
    limits (-45.0 90.0)
           (-20.0 70.0)
  end
  begin
     id 10 
     name rtoes
     direction -1.53586e-011 -4.22014e-011 1   
     length 1.0886   
     axis -90 -7.62852e-016 -20   XYZ
    dof rx
    limits (-90.0 20.0)
  end
  begin
     id 11 
     name lowerback
     direction -0.0470064 0.989573 -0.136149   
     length 2.05976   
     axis 0 0 0   XYZ
    dof rx ry rz
    limits (-20.0 45.0)
           (-30.0 30.0)
           (-30.0 30.0)
  end
  begin
     id 12 
     name upperback
     direction -0.00532895 0.998093 0.0615045   
     length 2.02286   
     axis 0 0 0   XYZ
    dof rx ry rz
    limits (-20.0 45.0)
           (-30.0 30.0)
           (-30.0 30.0)
  end
  begin
     id 13 
     name thorax
     direction 0.0171558 0.991502 0.128954   
     length 2.09196   
     axis 0 0 0   XYZ
    dof rx ry rz
    limits (-20.0 45.0)
           (-30.0 30.0)
           (-30.0 30.0)
  end
  begin
     id 14 
     name lowerneck
     direction 0.0221176 0.995362 0.0936194   
     length 1.70234   
     axis 0 0 0   XYZ
    dof rx ry rz
    limits (-20.0 45.0)
           (-30.0 30.0)
           (-30.0 30.0)
  end
  begin
     id 15 
     name upperneck
     direction -0.0237973 0.998511 -0.0490877   
     length 1.66068   
     axis 0 0 0   XYZ
    dof rx ry rz
    limits (-20.0 45.0)
           (-30.0 30.0)
           (-30.0 30.0)
  end
  begin
     id 16
     name head
     direction -0.00980141 0.999531 -0.0289958  
     length 1.82618  
     axis 0 0 0   XYZ
    dof rx ry rz
    limits (-20.0 45.0)
           (-30.0 30.0)
           (-30.0 30.0)
  end
  begin
     id 17 
     name lclavicle
     direction 0.894784 0.445864 -0.0238113  
     length 3.37997  
     axis 0 0 0   XYZ
    dof ry rz
    limits (-20.0 10.0)
           (0.0 20.0)
  end
  begin
     id 18 
     name lhumerus
     direction 1 -4.48975e-011 6.49229e-028   
     length 5.79016   
     axis 180 -30 -90   XYZ
    dof rx ry rz
    limits (-60.0 90.0)
           (-90.0 90.0)
           (-90.0 90.0)
  end
  begin
     id 19
     name lradius
     direction 1 -4.48959e-011 2.80427e-027   
     length 3.48314   
     axis 180 -30 -90   XYZ
    dof rx
    limits (-10.0 170.0)
  end
  begin
     id 20
     name lwrist
     direction 1 -4.48938e-011 5.60449e-029   
     length 1.74157   
     axis 8.48505e-016 90 90   XYZ
    dof ry
    limits (-180.0 0.0)
 end
  begin
     id 21 
     name lhand
     direction 1 -4.49048e-011 1.1209e-028   
     length 0.587065   
     axis -7.15228e-017 90 90   XYZ
    dof rx rz
    limits (-90.0 90.0)
           (-45.0 45.0)
  end
  begin
     id 22 
     name lfingers
     direction 1 -4.49036e-011 2.24179e-028   
     length 0.473307   
     axis -1.43046e-016 90 90   XYZ
    dof rx
    limits (0.0 90.0)
  end
  begin
     id 23
     name lthumb
     direction 0.707107 -6.34878e-011 0.707107   
     length 0.679577   
     axis -90 45 2.85299e-015   XYZ
    dof rx rz
    limits (-45.0 45.0)
           (-45.0 45.0)
  end
  begin
     id 24 
     name rclavicle
     direction -0.952963 0.303049 0.00480459   
     length 3.50503  
     axis 0 0 0   XYZ 
    dof ry rz
    limits (-10.0 20.0)
           (-20.0 0.0)
  end
  begin
     id 25 
     name rhumerus
     direction -1 -4.48973e-011 -1.5431e-027  
     length 5.69822   
     axis 180 30 90   XYZ
    dof rx ry rz
    limits (-90.0 60.0)
           (-90.0 90.0)
           (-90.0 90.0)
  end
  begin
     id 26 
     name rradius
     direction -1 -4.4896e-011 2.11972e-027   
     length 3.58077   
     axis 180 30 90   XYZ
    dof rx
    limits (-10.0 170.0)
  end
  begin
     id 27 
     name rwrist
     direction -1 -4.48943e-011 5.60449e-029   
     length 1.79039   
     axis 8.48505e-016 -90 -90   XYZ
    dof ry
    limits (-180.0 0.0)
  end
  begin
     id 28
     name rhand
     direction -1 -4.49007e-011 1.1209e-028   
     length 0.620156   
     axis -7.15228e-017 -90 -90   XYZ
    dof rx rz
    limits (-90.0 90.0)
           (-45.0 45.0)
  end
  begin
     id 29
     name rfingers
     direction -1 -4.49025e-011 2.24179e-028   
     length 0.499985   
     axis -1.43046e-016 -90 -90   XYZ
    dof rx
    limits (0.0 90.0)
  end
  begin
     id 30
     name rthumb
     direction -0.707107 -6.3481e-011 0.707107   
     length 0.717882   
     axis -90 -45 -2.85299e-015   XYZ
    dof rx rz
    limits (-45.0 45.0)
           (-45.0 45.0)
  end
:hierarchy
  begin
    root lhipjoint rhipjoint lowerback
    lhipjoint lfemur
    lfemur ltibia
    ltibia lfoot
    lfoot ltoes
    rhipjoint rfemur
    rfemur rtibia
    rtibia rfoot
    rfoot rtoes
    lowerback upperback
    upperback thorax
    thorax lowerneck lclavicle rclavicle
    lowerneck upperneck
    upperneck head
    lclavicle lhumerus
    lhumerus lradius
    lradius lwrist
    lwrist lhand lthumb
    lhand lfingers
    rclavicle rhumerus
    rhumerus rradius
    rradius rwrist
    rwrist rhand rthumb
    rhand rfingers
  end

#!OML:ASF H:\Terrain\Patient Classification 1\PaulMetrics\March17Take4\PaulMetrics.ASF
:FULLY-SPECIFIED
:DEGREES
124
root 4.85008 17.5013 2.86261 3.17716 -6.10115 5.02028
lowerback 2.50491 -0.0823497 -8.44955
upperback -2.2192 -0.502687 -1.06105
thorax -3.66249 -0.0448164 3.66097
lowerneck -5.11483 6.59431 6.49473
upperneck 14.313 9.11081 -5.69313
head 5.71865 4.42004 -2.22116
rclavicle -1.20723e-014 1.03368e-014
rhumerus -50.8838 10.4085 -91.4254
rradius 36.1039
rwrist -7.25974
rhand -15.0267 -31.7708
rfingers 7.12502
rthumb 11.139 -61.4552
lclavicle -1.20723e-014 1.03368e-014
lhumerus -39.8654 -18.4548 82.5064
lradius 60.657
lwrist 25.4692
lhand -14.5443 -21.3992
lfingers 7.12502
lthumb 11.6043 8.25954
rfemur -36.4536 -1.34857 16.1262
rtibia 53.4285
rfoot -10.7509 -13.4778
rtoes -11.1404
lfemur -10.2828 -6.12691 -31.6628
ltibia 28.3229
lfoot -20.5659 3.97021
ltoes 14.6595
125
root 4.83008 17.4875 3.00982 3.14433 -5.99312 5.5465
lowerback 2.37212 -0.0397807 -8.86753
upperback -2.15914 -0.451104 -1.23371
thorax -3.53243 -0.0179534 3.71037
lowerneck -4.93211 6.48344 6.76128
upperneck 14.2293 8.97447 -5.93676
head 5.67558 4.35615 -2.35741
rclavicle 9.59214e-015 -3.39922e-014
rhumerus -51.2412 10.6547 -91.8875
rradius 36.4462
rwrist -8.87578
rhand -16.8428 -31.6461
rfingers 7.12502
rthumb 9.38702 -61.417
lclavicle 9.59214e-015 -3.39922e-014
lhumerus -39.6992 -19.0411 82.4442
lradius 61.338
lwrist 25.5861
lhand -14.517 -21.582
lfingers 7.12502
lthumb 11.6305 8.0752
rfemur -36.6808 -1.08991 15.3791
rtibia 51.2731
rfoot -10.225 -13.9776
rtoes -11.9372
lfemur -9.35348 -5.78576 -32.3493
ltibia 27.536
lfoot -20.5016 4.44194
ltoes 10.5368
126
root 4.80849 17.4986 3.15672 3.14797 -5.9041 5.81872
lowerback 2.34068 -0.0619739 -9.12494
upperback -2.16387 -0.488805 -1.2652
thorax -3.51518 -0.0312275 3.82272
lowerneck -4.65931 6.44942 6.4603
upperneck 14.1667 8.92808 -5.65537
head 5.57987 4.3419 -2.23563
rclavicle 3.11222e-015 -9.0447e-015
rhumerus -51.5582 10.8298 -92.1426
rradius 36.7351
rwrist -9.76019
rhand -18.2209 -31.4875
rfingers 7.12502
rthumb 8.05713 -61.3139
lclavicle 3.11222e-015 -9.0447e-015
lhumerus -39.6695 -19.0697 82.3097
lradius 61.9623
lwrist 25.5681
lhand -14.3893 -21.6664
lfingers 7.12502
lthumb 11.7537 7.98385
rfemur -36.7239 -0.393372 14.71
rtibia 48.9219
rfoot -10.1462 -14.4368
rtoes -6.74501
lfemur -8.43362 -6.09814 -32.6275
ltibia 26.6512
lfoot -20.7114 4.38023
ltoes 12.4436
127
root 4.78481 17.5154 3.29743 3.27783 -5.69942 5.77589
lowerback 2.32734 -0.130967 -9.1232
upperback -2.1962 -0.578269 -1.17976
thorax -3.52878 -0.0728904 3.91551
lowerneck -4.45821 6.47989 6.25987
upperneck 14.1129 8.97098 -5.47839
head 5.51442 4.36796 -2.15308
rclavicle -1.20358e-016 1.03368e-014
rhumerus -51.3526 10.3422 -91.5588
rradius 36.7289
rwrist -7.76861
rhand -15.9663 -31.9609
rfingers 7.12502
rthumb 10.2327 -61.692
lclavicle -1.20358e-016 1.03368e-014
lhumerus -39.6342 -19.0427 82.1975
lradius 62.585
lwrist 25.5877
lhand -14.4347 -21.5362
lfingers 7.12502
lthumb 11.71 8.11648
rfemur -36.8287 0.334905 14.3625
rtibia 46.4195
rfoot -10.7778 -14.7216
rtoes -6.18912
lfemur -7.65801 -6.63752 -32.5376
ltibia 25.7459
lfoot -20.7882 4.34801
ltoes 14.0477
128
root 4.76055 17.5236 3.43496 3.46232 -5.64916 5.7266
lowerback 2.14541 -0.105411 -9.10823
upperback -2.18399 -0.520654 -1.13041
thorax -3.42009 -0.0489144 3.95449
lowerneck -4.43714 6.49866 6.5208
upperneck 13.9962 9.01439 -5.80022
head 5.50365 4.38366 -2.2929
rclavicle 8.01351e-015 -8.44835e-015
rhumerus -51.156 10.0292 -91.1811
rradius 36.7467
rwrist -6.24806
rhand -14.0265 -32.2876
rfingers 7.12502
rthumb 12.1036 -61.9175
lclavicle 8.01351e-015 -8.44835e-015
lhumerus -39.3965 -19.3954 82.1104
lradius 63.1165
lwrist 25.52
lhand -14.6046 -21.4039
lfingers 7.12502
lthumb 11.5461 8.25802
rfemur -37.0238 1.15619 14.0844
rtibia 43.8828
rfoot -11.2927 -15.1959
rtoes -8.20796
lfemur -6.63605 -7.08902 -32.4566
ltibia 24.7429
lfoot -21.0589 4.19825
ltoes 16.8166
129
root 4.73418 17.5322 3.57477 3.6171 -5.59697 5.87347
lowerback 1.92927 -0.0580703 -9.22605
upperback -2.1712 -0.437 -1.14568
thorax -3.29577 -0.0103634 3.99891
lowerneck -4.61259 6.54905 6.50348
upperneck 14.0689 9.06005 -5.66952
head 5.55265 4.40944 -2.23913
rclavicle -1.94428e-014 -3.28989e-014
rhumerus -51.3392 10.3391 -91.4041
rradius 36.9625
rwrist -6.61468
rhand -14.2551 -32.1313
rfingers 7.12502
rthumb 11.8831 -61.7741
lclavicle -1.94428e-014 -3.28989e-014
lhumerus -39.1062 -19.7981 82.0023
lradius 63.5166
lwrist 25.4706
lhand -14.5931 -21.9161
lfingers 7.12502
lthumb 11.5572 7.74527
rfemur -37.2844 2.05953 13.5142
rtibia 41.6033
rfoot -12.3217 -15.8943
rtoes -7.79029
lfemur -5.31828 -7.1062 -32.5719
ltibia 23.3316
lfoot -21.0568 3.84434
ltoes 17.9354
